# xmcd
# Copyright (C) 1995-1998 Ti Kan
#
# Track frame offsets:
#       150
#       13384
#       28042
#
# Disc length: 550 seconds
#
# Revision: 0
# Processed by: cddbd v1.4PL0 Copyright (c) Steve Scherf et al.
# Submitted via: CD-Transfer v1.0
#
DISCID=1f022403
DTITLE=Che Lee - 
DYEAR=2003
DGENRE=
TTITLE0=Schiisdräck
TTITLE1=Im Örgelihuus
TTITLE2=Schiisdräck (Instrumental)
EXTD=
EXTT0=
EXTT1=
EXTT2=
PLAYORDER=
